PathFileType	4	(X/Y/Z)	Apose_0-50.trc
DataRate	CameraRate	NumFrames	NumMarkers	Units	OrigDataRate	OrigDataStartFrame	OrigNumFrames
30	30	5	22	m	30	20	50
Frame#	Time	Hip			RHip			RKnee			RAnkle			RBigToe			RSmallToe			RHeel			LHip			LKnee			LAnkle			LBigToe			LSmallToe			LHeel			Neck			Head			Nose			RShoulder			RElbow			RWrist			LShoulder			LElbow			LWrist		
		X1	Y1	Z1	X2	Y2	Z2	X3	Y3	Z3	X4	Y4	Z4	X5	Y5	Z5	X6	Y6	Z6	X7	Y7	Z7	X8	Y8	Z8	X9	Y9	Z9	X10	Y10	Z10	X11	Y11	Z11	X12	Y12	Z12	X13	Y13	Z13	X14	Y14	Z14	X15	Y15	Z15	X16	Y16	Z16	X17	Y17	Z17	X18	Y18	Z18	X19	Y19	Z19	X20	Y20	Z20	X21	Y21	Z21	X22	Y22	Z22
21	0.7	0.032483762990292805	0.9234334559142261	0.35501575587055073	0.02198322176050854	0.8882012819295786	0.46238569571582533	0.0002407924865139299	0.5077228861660071	0.49643292882534396	-0.009751000734961225	0.12028177586703546	0.5163804781523594	0.18984719503336628	0.031866178845476684	0.5604616305287591	0.14426936503008578	0.031726001631483494	0.6298935531049094	-0.03809960413724834	0.035299549761578244	0.49692450094953505	0.02655059033429143	0.8893791351891404	0.24195998329926052	0.00799199671596363	0.5109293749608802	0.22467854870285253	0.002930712027640957	0.12425627013034118	0.20644425202421668	0.21620630194417728	0.04840632097585207	0.18749977108223842	0.16643143550353925	0.03662003832150347	0.12370180353615212	-0.052935758741958494	0.039048448425896415	0.20837683344200508	0.05059879987814107	1.5691387507831316	0.349318089658998	0.2513384802540564	1.75684584295752	0.34101219182913967	0.22635682912329325	1.573937725139699	0.3240576878343578	0.01577883642642048	1.4920547180737405	0.5262784462013272	0.04730431635781358	1.2335494503557252	0.7109678786999766	0.11409914938132631	1.048250656746073	0.8855907168075347	0.014058782802329903	1.4792734208344644	0.14857001920185584	0.024233193831164037	1.2243637268250631	0.0018443006466741627	0.08061026915625623	1.0190769672847397	-0.1461316816002001
22	0.7333333333333333	0.03311060732054702	0.9222900478615579	0.3543849313815827	0.022603881499292586	0.8886031365941508	0.4598312874361092	8.52139254557143e-05	0.5071200674079908	0.4955834256573844	-0.009148890017428829	0.12064060088048302	0.5163187696330227	0.20071128643706115	0.027730864435915072	0.5706546951443429	0.14534948464129693	0.031540093958899604	0.6299412104724836	-0.04695990884625069	0.04655379637354571	0.5068902125504434	0.026497102134348683	0.8894008155337966	0.24033968905832384	0.00830355048935299	0.5111231114521155	0.2226119318428875	0.0028662684839244348	0.12300576601447151	0.204798467115897	0.215538866246744	0.0494553059294193	0.18655458048054072	0.16572664410924257	0.037663913475332156	0.12266575142577475	-0.053829470128413756	0.04092495764296435	0.20924229882290715	0.048794320651351995	1.5674791965832564	0.347455987445895	0.2517648485590536	1.7587668901991182	0.3413871004349236	0.22684637664121873	1.5745643969001255	0.3246802154341626	0.017031974330632436	1.493810558191215	0.525105559232154	0.06385368412706292	1.222582027519129	0.7262929078366471	0.11461373159119333	1.0482157366166855	0.8848821828018172	0.013365659589311017	1.4792774007760765	0.14791063700771068	0.02671500434603663	1.2252891459743107	0.0010749675823596154	0.08129806576842433	1.0208575899299412	-0.14662426008637722
23	0.7666666666666667	0.035006312361601	0.9217845348557671	0.35564714699068567	0.02219847694253544	0.8895690058545639	0.46072120609488865	-0.0002845011462155475	0.5076121354940494	0.49523456527850795	-0.0029705761497253744	0.11172124335604404	0.516112554770686	0.18864293939585358	0.0322122341991238	0.5593609319479187	0.1438875765795596	0.03285653512507088	0.6276015702239001	-0.03609271924707046	0.03636698061214022	0.4991260075218411	0.0284656841725393	0.8882767771265052	0.24042519801781975	0.010739872558131767	0.5117133398508426	0.22197457954303504	0.0034152395591183554	0.12253154367050337	0.2048463332793423	0.21982509827787478	0.04767641195307137	0.1887539298419354	0.1661358472345257	0.03766762864664128	0.12372011619598211	-0.05310192354563106	0.03908351769074362	0.20857767894530968	0.06484865143526315	1.5892597731566416	0.3526437229193221	0.2564075790051663	1.7660719556896147	0.3511215325246639	0.22381823087640135	1.5763728990351016	0.3218740847215818	0.01644691011582241	1.4935245571075029	0.5260031082180658	0.04786431435986234	1.232321494520448	0.7086484400088908	0.1151836490354582	1.0476589169589496	0.8851367659569198	0.014339154562266669	1.479778058408617	0.14492237322779794	0.027464106478373006	1.2265345382058919	0.0016148074976089686	0.08331553613121712	1.0187596787300255	-0.14741339275914006
24	0.8	0.034926730633829145	0.9229949370638179	0.35549912641350684	0.024727253748138524	0.8901969720481676	0.46151588240866825	0.0013895211004911773	0.5103393000152852	0.496066873029101	-0.009217500623147079	0.12125411976053575	0.5158651228588861	0.18929926053601004	0.033664185663806294	0.5579175572458193	0.14425158931298668	0.031203774251821928	0.6259986128476511	-0.035529962845430946	0.03491635185800203	0.4973228552794551	0.028971345984698957	0.8871874533686277	0.24211816593805294	0.012171246578755242	0.5132896922620034	0.22179439139157908	0.0044541985028105305	0.1236149192172806	0.20448783129105572	0.21889771456039853	0.04639440513844764	0.18829473419501497	0.16721998974423102	0.037171889970197824	0.12468778389436837	-0.04376784637152799	0.061740444816628645	0.19887730304661835	0.06377832773392605	1.590441134017268	0.3530801016163473	0.31654728290627343	1.7727543111595103	0.2746548278032824	0.3066029962823318	1.6182716544502946	0.32598559526009313	0.016714292155993404	1.4937205181240527	0.5259760869233484	0.047645717278624926	1.2342730193743245	0.7098154584918407	0.11636431962787847	1.0495573010971884	0.8855986903652528	0.014980742807204609	1.4815816127492252	0.1453621138743645	0.02869170858471325	1.2256689329245156	0.0014223759062982953	0.08365446428730533	1.0192157245543487	-0.14869738830147916
25	0.8333333333333334	0.03191100473445298	0.921458712080415	0.35672248507314036	0.025008913856038522	0.8818975108612425	0.462836136450909	0.0025393660845805296	0.5095056009374688	0.4943906663670149	-0.010815215984897375	0.12126000956805953	0.5155990928821395	0.1901519831860365	0.03123278872357659	0.56180181579966	0.14625908647834793	0.03183057938825597	0.6291931899993713	-0.04865671393335249	0.0467497336786853	0.5052321487431022	0.024917731170539675	0.8815296491523887	0.24521558748670086	0.010573524741754926	0.5076610256201443	0.2265092153474721	0.0037479891182554677	0.12510204406344097	0.2059166702082424	0.21972078236563042	0.04637241066751209	0.18706117497094657	0.16680841293151433	0.0343839578442257	0.12482222178158466	-0.04287529163785235	0.05838844289014693	0.20180149967156524	0.04777314945265615	1.5725732981489349	0.34558070854377887	0.24275026333009522	1.75791892211109	0.33621790182200456	0.22712383692649235	1.5783896648278377	0.3249223157650136	0.0191224220266424	1.4907706430885734	0.5311857414381879	0.0725285777971018	1.237988079385043	0.7153992609483771	0.11466738385610616	1.0495176586068362	0.8838608229534608	0.010897210179845627	1.4800127964940355	0.1450276241256766	0.027017979063297816	1.2256156517036787	0.0009470884796054206	0.08360247110435394	1.022221118547141	-0.14664254776474456
